<svg width="224" height="70" viewBox="0 0 224 70" fill="none" xmlns="http://www.w3.org/2000/svg">
<path d="M62.7975 24.852C62.7975 22.86 63.3135 21.408 64.3455 20.496C65.4015 19.584 67.0215 19.128 69.2055 19.128H76.6215C78.7815 19.128 80.3895 19.584 81.4455 20.496C82.5015 21.408 83.0295 22.86 83.0295 24.852V42.636C83.0295 44.604 82.5015 46.044 81.4455 46.956C80.3895 47.868 78.7815 48.324 76.6215 48.324H69.2055C67.0215 48.324 65.4015 47.868 64.3455 46.956C63.3135 46.044 62.7975 44.604 62.7975 42.636V24.852ZM67.8735 23.196C67.5615 23.196 67.4055 23.352 67.4055 23.664V43.788C67.4055 44.1 67.5615 44.256 67.8735 44.256H77.9175C78.2295 44.256 78.3855 44.1 78.3855 43.788V23.664C78.3855 23.352 78.2295 23.196 77.9175 23.196H67.8735ZM98.4353 25.644V29.172H92.9993C92.6633 29.172 92.4953 29.34 92.4953 29.676L92.5313 48H88.2113L88.1393 25.968H92.0273L92.3513 28.2C92.8313 26.496 94.1633 25.644 96.3473 25.644H98.4353ZM106.555 48.324C104.371 48.324 102.799 47.916 101.839 47.1C100.879 46.26 100.399 44.844 100.399 42.852V31.116C100.399 29.124 100.879 27.72 101.839 26.904C102.799 26.064 104.371 25.644 106.555 25.644H113.323V29.28H105.295C104.959 29.28 104.791 29.448 104.791 29.784V44.184C104.791 44.52 104.959 44.688 105.295 44.688H113.323V48.324H106.555ZM108.787 52.644C108.787 52.452 108.679 52.356 108.463 52.356H104.755L105.799 47.46L107.959 47.784L107.527 50.016H107.995C109.147 50.016 110.035 50.22 110.659 50.628C111.283 51.06 111.595 51.816 111.595 52.896V53.868C111.595 56.268 110.263 57.468 107.599 57.468H104.215V54.876H108.463C108.679 54.876 108.787 54.768 108.787 54.552V52.644ZM120.578 48.324C118.778 48.324 117.458 47.976 116.618 47.28C115.802 46.56 115.394 45.288 115.394 43.464V40.224C115.394 38.304 115.826 36.972 116.69 36.228C117.578 35.46 119.042 35.076 121.082 35.076H126.734V30.072C126.734 29.76 126.578 29.604 126.266 29.604L116.726 29.64V25.932H125.294C127.358 25.908 128.846 26.304 129.758 27.12C130.67 27.912 131.126 29.304 131.126 31.296V48H127.202L126.842 45.516C126.65 46.452 126.23 47.16 125.582 47.64C124.958 48.096 124.058 48.324 122.882 48.324H120.578ZM126.734 44.796V38.244H120.182C119.87 38.244 119.714 38.4 119.714 38.712V44.292C119.714 44.628 119.87 44.796 120.182 44.796H126.734ZM142.295 48.324C140.111 48.324 138.491 47.868 137.435 46.956C136.403 46.044 135.887 44.604 135.887 42.636V24.852C135.887 22.86 136.403 21.408 137.435 20.496C138.491 19.584 140.111 19.128 142.295 19.128H154.535V23.196H140.963C140.651 23.196 140.495 23.352 140.495 23.664V43.788C140.495 44.1 140.651 44.256 140.963 44.256H150.179C150.515 44.256 150.683 44.1 150.683 43.788V36.516H146.147V32.7H155.075V42.636C155.075 44.604 154.547 46.044 153.491 46.956C152.435 47.868 150.815 48.324 148.631 48.324H142.295ZM163.785 48.324C161.985 48.324 160.665 47.976 159.825 47.28C159.009 46.56 158.601 45.288 158.601 43.464V40.224C158.601 38.304 159.033 36.972 159.897 36.228C160.785 35.46 162.249 35.076 164.289 35.076H169.941V30.072C169.941 29.76 169.785 29.604 169.473 29.604L159.933 29.64V25.932H168.501C170.565 25.908 172.053 26.304 172.965 27.12C173.877 27.912 174.333 29.304 174.333 31.296V48H170.409L170.049 45.516C169.857 46.452 169.437 47.16 168.789 47.64C168.165 48.096 167.265 48.324 166.089 48.324H163.785ZM169.941 44.796V38.244H163.389C163.077 38.244 162.921 38.4 162.921 38.712V44.292C162.921 44.628 163.077 44.796 163.389 44.796H169.941ZM168.357 23.196H165.117L167.925 16.572L172.425 16.608L168.357 23.196ZM178.23 48.108L178.194 44.58H187.914C188.25 44.58 188.418 44.424 188.418 44.112V39.036C188.418 38.7 188.25 38.532 187.914 38.532H183.558C181.494 38.532 180.018 38.16 179.13 37.416C178.266 36.648 177.834 35.304 177.834 33.384V31.008C177.834 29.016 178.29 27.624 179.202 26.832C180.138 26.016 181.626 25.62 183.666 25.644H191.586V29.316L182.73 29.28C182.418 29.28 182.262 29.448 182.262 29.784V34.608C182.262 34.944 182.418 35.112 182.73 35.112H187.05C189.114 35.112 190.578 35.484 191.442 36.228C192.306 36.948 192.738 38.28 192.738 40.224V43.248C192.738 45.072 192.318 46.344 191.478 47.064C190.662 47.76 189.342 48.108 187.518 48.108H178.23Z" fill="url(#paint0_linear_14_11)"/>
<path d="M54.1341 35C54.1341 50.9532 42.0949 63.8243 27.3171 63.8243C12.5392 63.8243 0.5 50.9532 0.5 35C0.5 19.0468 12.5392 6.17566 27.3171 6.17566C42.0949 6.17566 54.1341 19.0468 54.1341 35Z" stroke="url(#paint1_linear_14_11)"/>
<g clip-path="url(#clip0_14_11)">
<path d="M42.2656 25.0675L28.5692 40.7939L21.3605 32.5168L10.5475 44.9324" stroke="url(#paint2_linear_14_11)" stroke-width="2" stroke-linecap="round" stroke-linejoin="round"/>
<path d="M33.6152 25.0675H42.2656V34.9999" stroke="url(#paint3_linear_14_11)" stroke-width="2" stroke-linecap="round" stroke-linejoin="round"/>
</g>
<defs>
<linearGradient id="paint0_linear_14_11" x1="179.382" y1="35.9459" x2="113.821" y2="35.9459" gradientUnits="userSpaceOnUse">
<stop stop-color="#9D7D12"/>
<stop offset="0.715" stop-color="#E6CB6E"/>
</linearGradient>
<linearGradient id="paint1_linear_14_11" x1="27.3171" y1="5.67566" x2="27.3171" y2="64.3243" gradientUnits="userSpaceOnUse">
<stop stop-color="#9D7D12"/>
<stop offset="1" stop-color="#E4D59F"/>
</linearGradient>
<linearGradient id="paint2_linear_14_11" x1="26.4066" y1="25.0675" x2="26.4066" y2="44.9324" gradientUnits="userSpaceOnUse">
<stop stop-color="#E2D069"/>
<stop offset="1" stop-color="#7D6001"/>
</linearGradient>
<linearGradient id="paint3_linear_14_11" x1="37.9404" y1="25.0675" x2="37.9404" y2="34.9999" gradientUnits="userSpaceOnUse">
<stop stop-color="#9D7D12"/>
<stop offset="1" stop-color="#D7DC3D"/>
</linearGradient>
<clipPath id="clip0_14_11">
<rect width="34.6016" height="39.7297" fill="white" transform="translate(9.10571 15.1351)"/>
</clipPath>
</defs>
</svg>
